<?xml version="1.0" standalone="no"?>
<!DOCTYPE svg PUBLIC "-//W3C//DTD SVG 20010904//EN"
 "http://www.w3.org/TR/2001/REC-SVG-20010904/DTD/svg10.dtd">
<svg version="1.0" xmlns="http://www.w3.org/2000/svg"
 width="300.000000pt" height="300.000000pt" viewBox="0 0 300.000000 300.000000"
 preserveAspectRatio="xMidYMid meet">
<metadata>
Created by potrace 1.14, written by Peter Selinger 2001-2017
</metadata>
<g transform="translate(0.000000,300.000000) scale(0.100000,-0.100000)"
fill="#000000" stroke="none">
<path d="M0 2490 c0 -280 2 -510 5 -510 3 0 38 22 78 49 202 136 483 290 712
392 625 276 1248 417 1980 449 121 5 221 10 223 10 1 0 2 27 2 60 l0 60 -1500
0 -1500 0 0 -510z"/>
<path d="M2670 2539 c-733 -46 -1450 -256 -2050 -600 -69 -39 -126 -75 -128
-80 -2 -5 -10 -9 -18 -9 -8 0 -14 -4 -14 -10 0 -5 -5 -10 -11 -10 -6 0 -21 -8
-34 -19 -19 -14 -21 -21 -12 -31 7 -8 7 -10 1 -7 -6 4 -16 -5 -23 -19 -6 -14
-16 -22 -21 -19 -6 3 -13 -1 -17 -11 -6 -16 -7 -16 -18 0 -11 15 -13 15 -19 1
-3 -9 -2 -14 3 -11 5 3 12 -1 15 -10 4 -9 2 -13 -6 -8 -8 5 -9 -8 -6 -45 3
-33 1 -52 -6 -53 -6 0 -15 -2 -21 -3 -5 -2 -14 -3 -19 -4 -5 0 -3 -8 4 -16 11
-13 10 -14 -4 -9 -12 5 -15 2 -10 -10 6 -14 -5 -21 -28 -17 -5 0 -8 -4 -8 -10
0 -7 9 -9 21 -6 16 4 18 3 8 -9 -6 -7 -15 -11 -20 -8 -5 3 -6 -2 -3 -11 4 -9
13 -14 22 -10 11 4 12 2 4 -7 -5 -7 -9 -34 -8 -60 3 -47 -7 -57 -17 -18 -3 11
-1 20 5 20 17 0 3 23 -21 31 -14 6 -20 5 -16 -1 3 -6 13 -10 22 -10 15 0 14
-2 0 -18 -10 -10 -17 -23 -17 -28 0 -5 5 -2 11 6 9 12 10 12 5 -3 -3 -10 -6
-23 -6 -28 0 -5 -5 -9 -11 -9 -6 0 -9 7 -6 15 4 8 2 17 -4 21 -6 4 -6 11 2 20
8 10 8 14 0 14 -6 0 -11 -5 -11 -11 0 -6 -7 -9 -15 -5 -8 3 -15 1 -15 -4 0 -6
4 -10 10 -10 6 0 6 -9 0 -24 -5 -13 -6 -27 -2 -31 7 -7 9 -12 11 -41 1 -14 3
-15 19 -3 16 13 16 13 2 -5 -14 -18 -16 -17 -42 14 -15 18 -24 38 -21 44 4 8
3 8 -6 0 -13 -12 -5 -44 11 -44 5 0 6 -4 3 -10 -3 -5 -1 -10 5 -10 6 0 18 -7
26 -15 14 -13 12 -15 -13 -15 -23 0 -31 -6 -41 -32 -6 -17 -15 -29 -18 -25 -4
4 -1 13 6 22 8 10 9 15 2 15 -6 0 -9 7 -6 15 4 8 1 15 -5 15 -8 0 -9 -21 -5
-67 5 -64 5 -66 -13 -53 -10 9 -8 4 5 -12 15 -16 20 -28 13 -33 -6 -3 -11 -11
-11 -17 0 -6 7 -5 17 3 17 13 17 13 0 -7 -9 -11 -14 -24 -10 -27 3 -4 4 -7 0
-7 -3 0 -14 16 -23 35 -9 19 -21 35 -26 35 -6 0 -5 -7 2 -15 10 -12 10 -19 2
-27 -12 -12 -14 -8 -16 46 -1 11 -7 21 -14 24 -12 4 -12 -7 1 -71 1 -6 11 -19
21 -27 16 -14 17 -17 3 -17 -9 0 -14 4 -11 9 3 4 1 8 -5 8 -12 0 -8 -47 6 -61
10 -10 5 -69 -6 -69 -11 0 -8 44 3 53 7 5 5 7 -4 4 -12 -3 -15 -23 -16 -95 0
-52 4 -90 9 -89 5 1 12 -4 14 -11 3 -8 -1 -10 -11 -6 -12 5 -16 0 -16 -20 0
-20 5 -26 23 -27 20 -1 21 -1 2 -7 -11 -4 -21 -15 -21 -24 -1 -10 3 -15 8 -12
5 3 4 -3 -3 -14 -11 -17 -10 -24 2 -38 8 -10 9 -15 2 -11 -9 6 -12 -69 -13
-308 l-1 -315 100 0 100 0 11 43 c31 124 99 268 169 362 47 62 194 206 281
276 85 67 349 242 474 314 344 197 826 405 1186 514 238 71 497 129 645 143
l30 3 3 448 2 447 -102 -1 c-57 -1 -159 -5 -228 -10z m-2265 -829 c2 -13 0
-30 -6 -39 -9 -13 -10 -12 -6 7 4 14 0 22 -9 22 -8 0 -14 -4 -14 -10 0 -5 -7
-10 -16 -10 -9 0 -12 -5 -8 -12 5 -7 3 -8 -6 -3 -10 6 -10 10 2 19 8 6 14 19
12 30 -2 14 0 16 9 7 16 -16 27 -14 27 6 0 22 10 11 15 -17z m-85 -140 c0 -5
-4 -10 -9 -10 -6 0 -13 5 -16 10 -3 6 1 10 9 10 9 0 16 -4 16 -10z m4 -36 c3
-8 2 -12 -4 -9 -6 3 -10 10 -10 16 0 14 7 11 14 -7z m-24 2 c0 -3 -4 -8 -10
-11 -5 -3 -10 -1 -10 4 0 6 5 11 10 11 6 0 10 -2 10 -4z m13 -55 c3 -13 1 -18
-9 -14 -7 2 -10 11 -7 19 7 19 10 18 16 -5z m-63 -145 c0 -3 -4 -8 -10 -11 -5
-3 -10 -1 -10 4 0 6 5 11 10 11 6 0 10 -2 10 -4z m-90 -101 c0 -8 -7 -15 -16
-15 -14 0 -14 3 -4 15 7 8 14 15 16 15 2 0 4 -7 4 -15z m0 -39 c0 -8 4 -16 10
-18 5 -1 -2 -8 -15 -14 -23 -11 -24 -10 -14 7 5 11 7 24 4 29 -3 6 -1 10 4 10
6 0 11 -6 11 -14z m-92 -161 c-3 -3 -9 2 -12 12 -6 14 -5 15 5 6 7 -7 10 -15
7 -18z m-12 -280 c0 -18 -3 -22 -12 -14 -7 6 -10 17 -7 25 8 22 19 16 19 -11z
m9 -69 c1 -14 -5 -22 -17 -22 -15 0 -16 2 -3 16 20 22 19 36 0 20 -9 -8 -15
-8 -15 -2 0 11 22 22 30 15 3 -3 5 -15 5 -27z m-17 -61 c-3 -3 -9 2 -12 12 -6
14 -5 15 5 6 7 -7 10 -15 7 -18z"/>
<path d="M257 1649 c7 -7 15 -10 18 -7 3 3 -2 9 -12 12 -14 6 -15 5 -6 -5z"/>
<path d="M223 1625 c0 -8 4 -15 9 -15 4 0 8 4 8 9 0 6 -4 12 -8 15 -5 3 -9 -1
-9 -9z"/>
<path d="M220 1596 c0 -2 7 -6 15 -10 8 -3 15 -1 15 4 0 6 -7 10 -15 10 -8 0
-15 -2 -15 -4z"/>
<path d="M155 1450 c-3 -5 -1 -10 4 -10 6 0 11 5 11 10 0 6 -2 10 -4 10 -3 0
-8 -4 -11 -10z"/>
<path d="M2960 1293 c-560 -96 -1253 -380 -1780 -729 -190 -126 -270 -194
-229 -194 5 0 7 4 4 10 -3 5 2 10 12 10 16 -1 15 -3 -5 -20 -21 -17 -21 -19
-5 -29 17 -9 17 -10 0 -17 -10 -4 -14 -10 -9 -13 5 -3 12 -18 16 -34 5 -20 2
-29 -9 -33 -11 -5 -12 -10 -4 -26 8 -15 8 -19 0 -14 -6 4 -11 3 -11 -3 0 -5 5
-13 10 -16 16 -10 12 -25 -5 -19 -17 7 -21 -11 -5 -21 5 -3 10 -12 10 -18 0
-7 -4 -6 -10 3 -8 12 -10 11 -10 -7 0 -12 5 -25 10 -28 6 -4 7 -12 3 -18 -4
-6 -8 -26 -8 -44 l-2 -33 1033 0 1034 0 0 650 c0 358 -3 649 -7 649 -5 -1 -19
-4 -33 -6z"/>
<path d="M30 1160 c0 -5 5 -10 11 -10 5 0 7 5 4 10 -3 6 -8 10 -11 10 -2 0 -4
-4 -4 -10z"/>
</g>
</svg>
